<?xml version="1.0" encoding="utf-8"?>
<!-- Generator: Adobe Illustrator 18.1.1, SVG Export Plug-In . SVG Version: 6.00 Build 0)  -->
<svg version="1.1" id="Layer_1" xmlns="http://www.w3.org/2000/svg" xmlns:xlink="http://www.w3.org/1999/xlink" x="0px" y="0px"
	 viewBox="0 0 640 480" enable-background="new 0 0 640 480" xml:space="preserve">
<g>
	<g enable-background="new    ">
		<path fill="#FFFFFF" d="M61.1,402.6h11l0.1,0.1v1.2l-0.1,0.1H62.1v6H69l0.1,0.1v1.3l-0.1,0.1h-6.9v5.5h10.1l0.1,0.1v1.2l-0.1,0.1
			h-11l-0.1-0.1v-15.6L61.1,402.6z"/>
		<path fill="#FFFFFF" d="M73.2,402.6h0.9l0.1,0.1V417h9.7l0.1,0.1v1.2l-0.1,0.1H73.2l-0.1-0.1v-15.6L73.2,402.6z"/>
		<path fill="#FFFFFF" d="M84.9,402.6h11l0.1,0.1v1.2l-0.1,0.1H85.8v6h6.9l0.1,0.1v1.3l-0.1,0.1h-6.9v5.5h10.1l0.1,0.1v1.2l-0.1,0.1
			h-11l-0.1-0.1v-15.6L84.9,402.6z"/>
		<path fill="#FFFFFF" d="M100.5,402.6h6.9l0.1,0.1v1.3l-0.1,0.1h-6.8c-1.6,0-2.9,1.1-3.9,3.3c-0.4,1-0.6,2-0.6,3.1v0.1
			c0,2.5,0.9,4.4,2.7,5.8c0.6,0.3,1.2,0.5,1.8,0.5h6.7l0.1,0.1v1.3l-0.1,0.1h-7c-1.6,0-3.1-1.1-4.3-3.4c-0.7-1.4-1-2.8-1-4.4v-0.6
			c0-2.3,0.8-4.4,2.4-6.1C98.4,403,99.4,402.6,100.5,402.6z"/>
		<path fill="#FFFFFF" d="M108.5,402.6h14.2l0.1,0.1v1.2l-0.1,0.1h-6.6v14.3l-0.1,0.1h-0.9l-0.1-0.1V404h-6.6l-0.1-0.1v-1.2
			L108.5,402.6z"/>
		<path fill="#FFFFFF" d="M123.7,402.6h8.3c1,0,1.9,0.8,2.6,2.5c0.1,0.7,0.2,1.2,0.2,1.5v0.4c0,1.8-0.7,3.1-2,3.9
			c-0.3,0.1-0.6,0.2-0.8,0.2h-2l4.7,7.3v0.1h-1.3l-4.8-7.3h-4v7.2l-0.1,0.1h-0.9l-0.1-0.1v-15.6L123.7,402.6z M124.7,404v5.6h7.4
			c0.7,0,1.2-0.5,1.6-1.7c0.1-0.1,0.1-0.5,0.2-1.1c0-1.2-0.5-2.1-1.4-2.7l-0.3-0.1L124.7,404z"/>
		<path fill="#FFFFFF" d="M141,402.6h2.1c1.7,0,3.1,1.2,4.4,3.5c0.6,1.5,0.9,2.8,0.9,4v0.7c0,2-0.6,3.9-1.9,5.6
			c-1.1,1.3-2.2,1.9-3.4,1.9H141c-1.7,0-3.1-1.2-4.4-3.5c-0.6-1.5-0.9-2.8-0.9-4v-0.7c0-2.2,0.7-4.2,2.1-5.9
			C138.9,403.1,140,402.6,141,402.6z M136.9,410.2v0.3c0,2.7,1,4.7,2.9,6c0.5,0.2,1,0.4,1.5,0.4h1.7c1.7,0,3.1-1.3,4-3.8
			c0.2-0.8,0.4-1.6,0.4-2.6v-0.3c0-2.1-0.7-3.9-2.2-5.3c-0.7-0.5-1.5-0.8-2.1-0.8h-1.7c-1.7,0-3,1.2-4,3.7
			C137,408.8,136.9,409.6,136.9,410.2z"/>
		<path fill="#FFFFFF" d="M149.4,402.6h0.9l8.7,14.2v-14.1l0.1-0.1h0.9l0.1,0.1v15.6l-0.1,0.1h-1.3l-8.4-13.6v13.5l-0.1,0.1h-0.9
			l-0.1-0.1v-15.6L149.4,402.6z"/>
		<path fill="#FFFFFF" d="M161,402.6h10.7l0.1,0.1v1.2l-0.1,0.1h-4.9v13h4.9l0.1,0.1v1.2l-0.1,0.1H161l-0.1-0.1v-1.2l0.1-0.1h4.9
			v-13H161l-0.1-0.1v-1.2L161,402.6z"/>
		<path fill="#FFFFFF" d="M176.3,402.6h6.9l0.1,0.1v1.3l-0.1,0.1h-6.8c-1.6,0-2.9,1.1-3.9,3.3c-0.4,1-0.6,2-0.6,3.1v0.1
			c0,2.5,0.9,4.4,2.7,5.8c0.6,0.3,1.2,0.5,1.8,0.5h6.7l0.1,0.1v1.3l-0.1,0.1h-7c-1.6,0-3.1-1.1-4.3-3.4c-0.7-1.4-1-2.8-1-4.4v-0.6
			c0-2.3,0.8-4.4,2.4-6.1C174.2,403,175.3,402.6,176.3,402.6z"/>
		<path fill="#FFFFFF" d="M187,402.6h8.3l0.1,0.1v1.2l-0.1,0.1h-7.6c-1,0-1.7,0.3-2,1c-0.3,0.6-0.5,1.2-0.5,1.8
			c0,1.3,0.5,2.3,1.5,2.8l0.4,0.1h5.6c1.2,0,2.1,0.8,2.7,2.5c0.2,0.5,0.3,1.1,0.3,1.8v0.5c0,1.3-0.5,2.5-1.6,3.5
			c-0.5,0.4-1,0.5-1.3,0.5h-8.6l-0.1-0.1V417l0.1-0.1h8c1.2,0,2-0.7,2.3-2l0.1-0.9c0-1.5-0.5-2.4-1.6-2.9l-0.3-0.1l-5.9-0.1
			c-0.7,0-1.4-0.6-2.2-1.8c-0.3-0.8-0.5-1.6-0.5-2.3v-0.4c0-1.4,0.6-2.6,1.7-3.6C186.4,402.7,186.8,402.6,187,402.6z"/>
		<path fill="#FFFFFF" d="M208.7,402.6h0.5c0.8,0,1.6,0.6,2.2,1.8c0.4,0.8,0.6,1.5,0.6,2.2v0.5c0,1.5-0.6,2.7-1.7,3.6
			c-0.4,0.2-0.8,0.4-1.1,0.4c2.2,2.7,3.3,4.1,3.4,4.1c0.1-0.2,0.1-0.5,0.1-0.9v-0.2l0.1-0.1h0.9c0,0,0.1,0.1,0.1,0.2
			c0,0.7-0.1,1.4-0.4,2l0.8,1l-0.7,1l-0.7-0.8c-0.6,0.7-1.3,1-1.8,1h-5.1c-1.1,0-2-0.9-2.7-2.8c-0.1-0.6-0.2-1.1-0.2-1.3v-0.5
			c0-1.9,0.7-3.2,2.2-4.1c0.3-0.1,0.6-0.2,0.9-0.2h0.4c-0.5-0.9-0.7-1.8-0.7-2.8c0-1.7,0.6-2.9,1.8-3.8
			C207.8,402.7,208.2,402.6,208.7,402.6z M207.2,411.1h-1.3c-0.9,0-1.6,0.8-1.9,2.3l0,0.6c0,1.2,0.5,2.1,1.4,2.7
			c0.2,0.1,0.6,0.2,1,0.2h4c0.8,0,1.3-0.2,1.5-0.6l-4.3-5.3L207.2,411.1z M206.7,406.9c0,0.9,0.4,1.8,1.2,2.7h1.2
			c0.8,0,1.4-0.6,1.7-1.8c0-0.1,0.1-0.4,0.1-1c0-1.2-0.5-2.1-1.4-2.7L209,404c-1.1,0-1.8,0.6-2.1,1.7
			C206.8,406.3,206.7,406.7,206.7,406.9z"/>
		<path fill="#FFFFFF" d="M221.4,402.6h11l0.1,0.1v1.2l-0.1,0.1h-10.1v6h6.9l0.1,0.1v1.3l-0.1,0.1h-6.9v5.5h10.1l0.1,0.1v1.2
			l-0.1,0.1h-11l-0.1-0.1v-15.6L221.4,402.6z"/>
		<path fill="#FFFFFF" d="M233.4,402.6h0.9l0.1,0.1V417h9.7l0.1,0.1v1.2l-0.1,0.1h-10.6l-0.1-0.1v-15.6L233.4,402.6z"/>
		<path fill="#FFFFFF" d="M245.1,402.6h11l0.1,0.1v1.2l-0.1,0.1h-10.1v6h6.9l0.1,0.1v1.3l-0.1,0.1h-6.9v5.5h10.1l0.1,0.1v1.2
			l-0.1,0.1h-11l-0.1-0.1v-15.6L245.1,402.6z"/>
		<path fill="#FFFFFF" d="M260.7,402.6h6.9l0.1,0.1v1.3l-0.1,0.1h-6.8c-1.6,0-2.9,1.1-3.9,3.3c-0.4,1-0.6,2-0.6,3.1v0.1
			c0,2.5,0.9,4.4,2.7,5.8c0.6,0.3,1.2,0.5,1.8,0.5h6.7l0.1,0.1v1.3l-0.1,0.1h-7c-1.6,0-3.1-1.1-4.3-3.4c-0.7-1.4-1-2.8-1-4.4v-0.6
			c0-2.3,0.8-4.4,2.4-6.1C258.6,403,259.6,402.6,260.7,402.6z"/>
		<path fill="#FFFFFF" d="M268.7,402.6h14.2l0.1,0.1v1.2l-0.1,0.1h-6.6v14.3l-0.1,0.1h-0.9l-0.1-0.1V404h-6.6l-0.1-0.1v-1.2
			L268.7,402.6z"/>
		<path fill="#FFFFFF" d="M284,402.6h8.3c1,0,1.9,0.8,2.6,2.5c0.1,0.7,0.2,1.2,0.2,1.5v0.4c0,1.8-0.7,3.1-2,3.9
			c-0.3,0.1-0.6,0.2-0.8,0.2h-2l4.7,7.3v0.1h-1.3l-4.8-7.3h-4v7.2l-0.1,0.1H284l-0.1-0.1v-15.6L284,402.6z M284.9,404v5.6h7.4
			c0.7,0,1.2-0.5,1.6-1.7c0.1-0.1,0.1-0.5,0.2-1.1c0-1.2-0.5-2.1-1.4-2.7l-0.3-0.1L284.9,404z"/>
		<path fill="#FFFFFF" d="M296.1,402.6h10.7l0.1,0.1v1.2l-0.1,0.1h-4.9v13h4.9l0.1,0.1v1.2l-0.1,0.1h-10.7l-0.1-0.1v-1.2l0.1-0.1
			h4.9v-13h-4.9l-0.1-0.1v-1.2L296.1,402.6z"/>
		<path fill="#FFFFFF" d="M311.4,402.6h6.9l0.1,0.1v1.3l-0.1,0.1h-6.8c-1.6,0-2.9,1.1-3.9,3.3c-0.4,1-0.6,2-0.6,3.1v0.1
			c0,2.5,0.9,4.4,2.7,5.8c0.6,0.3,1.2,0.5,1.8,0.5h6.7l0.1,0.1v1.3l-0.1,0.1h-7c-1.6,0-3.1-1.1-4.3-3.4c-0.7-1.4-1-2.8-1-4.4v-0.6
			c0-2.3,0.8-4.4,2.4-6.1C309.3,403,310.3,402.6,311.4,402.6z"/>
		<path fill="#FFFFFF" d="M326.4,402.6l7.2,15.8l0,0.1h-1.3l-3.2-6.9h-5.3c-1.8,4-2.8,6.3-3.1,6.9h-1.3l-0.1-0.1L326.4,402.6z
			 M326.4,405.7l-1.9,4.4h3.9V410L326.4,405.7z"/>
		<path fill="#FFFFFF" d="M334.6,402.6h0.9l0.1,0.1V417h9.7l0.1,0.1v1.2l-0.1,0.1h-10.6l-0.1-0.1v-15.6L334.6,402.6z"/>
		<path fill="#FFFFFF" d="M355.1,402.6h8.3l0.1,0.1v1.2l-0.1,0.1h-7.6c-1,0-1.7,0.3-2,1c-0.3,0.6-0.5,1.2-0.5,1.8
			c0,1.3,0.5,2.3,1.5,2.8l0.4,0.1h5.6c1.2,0,2.1,0.8,2.7,2.5c0.2,0.5,0.3,1.1,0.3,1.8v0.5c0,1.3-0.5,2.5-1.6,3.5
			c-0.5,0.4-1,0.5-1.3,0.5h-8.6l-0.1-0.1V417l0.1-0.1h8c1.2,0,2-0.7,2.3-2l0.1-0.9c0-1.5-0.5-2.4-1.6-2.9l-0.3-0.1l-5.9-0.1
			c-0.7,0-1.4-0.6-2.2-1.8c-0.3-0.8-0.5-1.6-0.5-2.3v-0.4c0-1.4,0.6-2.6,1.7-3.6C354.5,402.7,354.8,402.6,355.1,402.6z"/>
		<path fill="#FFFFFF" d="M364.8,402.6h1.3l4.1,6.8l4.1-6.8h1.3v0.1l-4.8,8.2v7.5l-0.1,0.1h-0.9l-0.1-0.1v-7.4c0-0.2-0.4-0.8-1.1-2
			L364.8,402.6L364.8,402.6z"/>
		<path fill="#FFFFFF" d="M378.4,402.6h8.3l0.1,0.1v1.2l-0.1,0.1h-7.6c-1,0-1.7,0.3-2,1c-0.3,0.6-0.5,1.2-0.5,1.8
			c0,1.3,0.5,2.3,1.5,2.8l0.4,0.1h5.6c1.2,0,2.1,0.8,2.7,2.5c0.2,0.5,0.3,1.1,0.3,1.8v0.5c0,1.3-0.5,2.5-1.6,3.5
			c-0.5,0.4-1,0.5-1.3,0.5h-8.6l-0.1-0.1V417l0.1-0.1h8c1.2,0,2-0.7,2.3-2l0.1-0.9c0-1.5-0.5-2.4-1.6-2.9l-0.3-0.1l-5.9-0.1
			c-0.7,0-1.4-0.6-2.2-1.8c-0.3-0.8-0.5-1.6-0.5-2.3v-0.4c0-1.4,0.6-2.6,1.7-3.6C377.8,402.7,378.1,402.6,378.4,402.6z"/>
		<path fill="#FFFFFF" d="M388.2,402.6h14.2l0.1,0.1v1.2l-0.1,0.1h-6.6v14.3l-0.1,0.1h-0.9l-0.1-0.1V404h-6.6l-0.1-0.1v-1.2
			L388.2,402.6z"/>
		<path fill="#FFFFFF" d="M403.5,402.6h11l0.1,0.1v1.2l-0.1,0.1h-10.1v6h6.9l0.1,0.1v1.3l-0.1,0.1h-6.9v5.5h10.1l0.1,0.1v1.2
			l-0.1,0.1h-11l-0.1-0.1v-15.6L403.5,402.6z"/>
		<path fill="#FFFFFF" d="M415.5,402.6h0.9l6.1,8.7l6.1-8.7h0.9l0.1,0.1v15.6l-0.1,0.1h-0.9l-0.1-0.1v-13.7l-6.1,8.7h0l-6.1-8.7
			v13.7l-0.1,0.1h-0.9l-0.1-0.1v-15.6L415.5,402.6z"/>
		<path fill="#FFFFFF" d="M433.4,402.6h8.3l0.1,0.1v1.2l-0.1,0.1h-7.6c-1,0-1.7,0.3-2,1c-0.3,0.6-0.5,1.2-0.5,1.8
			c0,1.3,0.5,2.3,1.5,2.8l0.4,0.1h5.6c1.2,0,2.1,0.8,2.7,2.5c0.2,0.5,0.3,1.1,0.3,1.8v0.5c0,1.3-0.5,2.5-1.6,3.5
			c-0.5,0.4-1,0.5-1.3,0.5h-8.6l-0.1-0.1V417l0.1-0.1h8c1.2,0,2-0.7,2.3-2l0.1-0.9c0-1.5-0.5-2.4-1.6-2.9l-0.3-0.1l-5.9-0.1
			c-0.7,0-1.4-0.6-2.2-1.8c-0.3-0.8-0.5-1.6-0.5-2.3v-0.4c0-1.4,0.6-2.6,1.7-3.6C432.8,402.7,433.2,402.6,433.4,402.6z"/>
	</g>
	
		<image overflow="visible" opacity="0.7" enable-background="new    " width="256" height="96" xlink:href="FCDCD8D8.png"  transform="matrix(1.6629 0 0 1.7103 50.625 269.2859)">
	</image>
	<g>
		<g enable-background="new    ">
			<path fill="#FFFFFF" d="M63,332.1h8.2c0.5,0,0.7,0.7,0.7,2c3.3-1.3,6.6-2,10-2h11.8c4.7,0,9.4,1.7,14.3,5.1
				c4.1-3.4,8.9-5.1,14.3-5.1h11.8c7.3,0,13.1,2.9,17.2,8.8c1,1.4,1.4,2.8,1.4,4.3v32.8l-0.7,0.5H144l-0.7-0.5v-30.1
				c0-4.3-2-7.1-6.1-8.3c-1-0.3-2.3-0.5-3.9-0.5h-10c-6,0-9.3,2.5-10,7.6v31.3l-0.7,0.5h-9l-0.7-0.5v-30.1c0-4.3-2-7.1-6.1-8.3
				c-1-0.3-2.3-0.5-3.9-0.5H82.3c-4.5,0-7.8,1.6-9.7,4.8l-0.7,3.5v30.6l-0.7,0.5H63l-0.7-0.5v-45.5L63,332.1z"/>
			<path fill="#FFFFFF" d="M173.3,332.1h39.4c7.6,0,13.5,2.9,17.6,8.8c1,1.4,1.4,2.8,1.4,4.3v32.8l-0.7,0.5h-8.2l-0.7-0.5v-3.3
				c-4.2,2.5-8.2,3.8-12.2,3.8h-29c-7.3,0-13-2.9-17.2-8.8c-1-1.4-1.4-2.8-1.4-4.3v-1.8c0-6.1,5-10.4,15.1-13.1l6.1-0.5H207
				c5.7,0,10.8,1.3,15.1,3.8v-5.3c0-6.4-3.9-9.6-11.8-9.6h-36.9l-0.7-0.5v-5.8L173.3,332.1z M171.8,364.5c1.4,4.9,4.8,7.3,10.4,7.3
				h23.3c6.6,0,10.8-1.7,12.5-5.1l0.4-1.8v-0.5c0-3.6-2.6-6-7.9-7.1l-2.9-0.3H183C175.5,357.8,171.8,360.2,171.8,364.5z"/>
			<path fill="#FFFFFF" d="M241.4,332.1h8.6c0.5,0,0.7,0.6,0.7,1.8c3.2-1.2,6.1-1.8,8.6-1.8H278l0.7,0.5v6.1l-0.7,0.5h-18.3
				c-6,1.1-9,3.2-9,6.3v32.6l-0.7,0.5h-8.6l-0.7-0.5v-45.5L241.4,332.1z"/>
			<path fill="#FFFFFF" d="M288.4,322.8h8.2l0.7,0.5v4.5l-0.7,0.5h-8.2l-0.7-0.5v-4.5L288.4,322.8z M288.4,332.1h8.2l0.7,0.5v45.5
				l-0.7,0.5h-8.2l-0.7-0.5v-45.5L288.4,332.1z"/>
			<path fill="#FFFFFF" d="M307,332.1h8.2c0.5,0,0.7,0.7,0.7,2c3.3-1.3,6.6-2,10-2h24.7c7.3,0,13.1,2.9,17.2,8.8
				c1,1.4,1.4,2.8,1.4,4.3v32.8l-0.7,0.5h-8.2l-0.7-0.5v-30.1c0-4.3-2-7.1-6.1-8.3c-1-0.3-2.3-0.5-3.9-0.5h-23.3
				c-4.5,0-7.8,1.6-9.7,4.8l-0.7,3.5v30.6l-0.7,0.5H307l-0.7-0.5v-45.5L307,332.1z"/>
			<path fill="#FFFFFF" d="M409.9,332.1h19c7.2,0,13,2.9,17.2,8.8c1,1.4,1.4,2.8,1.4,4.3v2c0,5.9-4.9,10.3-14.7,13.1l-6.5,0.5h-36.6
				c0.4,1.6,2.3,3.7,5.7,6.3c3.6,3,11.2,4.5,22.9,4.5h22.9l0.7,0.5v5.8l-0.7,0.5h-31.5c-11.9,0-21.3-4.4-28.3-13.1
				c-2.2-2.9-3.2-5.9-3.2-9.1v-2c0-8.2,6.1-14.8,18.3-20C401.3,332.9,405.7,332.1,409.9,332.1z M388.4,353.9h38.7
				c6.9-0.6,10.4-2.9,10.4-7.1l0.4-0.3c0-3.9-3.1-6.4-9.3-7.3h-18.3c-9.6,0-16.6,3.9-21.2,11.6L388.4,353.9z"/>
		</g>
	</g>
	<g>
		
			<image overflow="visible" opacity="0.7" enable-background="new    " width="255" height="114" xlink:href="FCDCD8D9.png"  transform="matrix(1.6629 0 0 1.7103 50.625 170.0874)">
		</image>
		<g>
			<g enable-background="new    ">
				<path fill="#FFFFFF" d="M146.1,302.9H141l-8.2-10.6c-2,1.7-4.2,3.3-6.4,4.7c-2.3,1.5-4.6,2.7-7.1,3.8c-2.5,1.1-5,1.9-7.6,2.6
					c-2.6,0.6-5.3,0.9-8,0.9c-5.8,0-11.3-1-16.5-3.1c-5.1-2-9.6-4.9-13.5-8.5c-3.9-3.6-6.9-7.9-9.1-12.9c-2.2-5-3.3-10.4-3.3-16.2
					c0-5.8,1.1-11.2,3.3-16.2c2.2-5,5.3-9.3,9.1-13c3.9-3.6,8.4-6.5,13.5-8.6c5.1-2.1,10.6-3.1,16.5-3.1c1.9,0,3.8,0.1,5.8,0.4
					c2,0.3,3.9,0.8,5.8,1.4c1.9,0.6,3.7,1.5,5.3,2.6c1.7,1.1,3.1,2.4,4.2,3.9v-36h21.3V302.9z M124.8,263.7c0-2.7-0.6-5.3-1.7-7.8
					c-1.1-2.5-2.6-4.7-4.5-6.7c-1.9-1.9-4.2-3.5-6.7-4.7c-2.6-1.2-5.3-1.8-8.2-1.8c-2.9,0-5.6,0.5-8.2,1.4c-2.6,1-4.8,2.3-6.7,4.1
					c-1.9,1.8-3.4,4-4.5,6.6s-1.6,5.5-1.6,8.8c0,2.8,0.5,5.5,1.6,8.1c1.1,2.5,2.6,4.8,4.5,6.7c1.9,1.9,4.1,3.4,6.7,4.5
					c2.6,1.1,5.3,1.7,8.2,1.7c2.9,0,5.6-0.6,8.2-1.8c2.6-1.2,4.8-2.7,6.7-4.7c1.9-1.9,3.4-4.2,4.5-6.7
					C124.2,268.9,124.8,266.3,124.8,263.7z"/>
				<path fill="#FFFFFF" d="M242.6,263.7c0,5.8-1.1,11.1-3.3,16.1c-2.2,5-5.3,9.3-9.1,12.9c-3.8,3.6-8.3,6.5-13.5,8.6
					c-5.1,2.1-10.7,3.1-16.6,3.1c-5.8,0-11.3-1-16.5-3.1c-5.1-2.1-9.6-4.9-13.5-8.6c-3.9-3.6-6.9-7.9-9.1-12.9
					c-2.2-5-3.3-10.3-3.3-16.1c0-5.9,1.1-11.3,3.3-16.3c2.2-5,5.3-9.3,9.1-12.9c3.9-3.6,8.4-6.5,13.5-8.5c5.1-2.1,10.6-3.1,16.5-3.1
					c5.9,0,11.4,1,16.6,2.9c5.1,1.9,9.6,4.7,13.5,8.3c3.8,3.6,6.9,7.9,9.1,12.9C241.5,251.9,242.6,257.5,242.6,263.7z M221.2,263.7
					c0-3.2-0.6-6-1.7-8.6c-1.1-2.6-2.6-4.8-4.5-6.6c-1.9-1.8-4.2-3.3-6.7-4.2c-2.6-1-5.3-1.5-8.2-1.5c-2.9,0-5.6,0.5-8.2,1.5
					c-2.6,1-4.8,2.4-6.7,4.2c-1.9,1.8-3.4,4.1-4.5,6.6c-1.1,2.6-1.6,5.4-1.6,8.6c0,3,0.5,5.7,1.6,8.3c1.1,2.5,2.6,4.7,4.5,6.6
					c1.9,1.9,4.1,3.3,6.7,4.4s5.3,1.6,8.2,1.6c2.9,0,5.6-0.5,8.2-1.5c2.6-1,4.8-2.4,6.7-4.2c1.9-1.8,3.4-4,4.5-6.6
					C220.7,269.6,221.2,266.8,221.2,263.7z"/>
				<path fill="#FFFFFF" d="M360,302.9h-21.1v-48.9c0-1.3-0.3-2.6-0.8-3.8c-0.5-1.2-1.3-2.3-2.3-3.2c-1-0.9-2.1-1.6-3.4-2.1
					s-2.7-0.8-4.1-0.8c-1.4,0-2.8,0.3-4.1,0.8c-1.3,0.5-2.4,1.2-3.3,2.1c-1,0.9-1.7,2-2.2,3.2c-0.5,1.2-0.8,2.5-0.8,3.8v48.9h-21.2
					v-48.9c0-1.3-0.3-2.6-0.8-3.8c-0.5-1.2-1.3-2.3-2.3-3.2c-1-0.9-2.1-1.6-3.4-2.1c-1.3-0.5-2.7-0.8-4.1-0.8
					c-1.4,0-2.8,0.3-4.1,0.8c-1.3,0.5-2.4,1.2-3.3,2.1c-1,0.9-1.7,2-2.3,3.2c-0.5,1.2-0.8,2.5-0.8,3.8v48.9h-21.2v-77.1h5.1l5.7,5.9
					c2.9-2.3,6.2-4.1,9.7-5.4c3.5-1.3,7.2-1.9,11.1-1.9c3.9,0,7.7,0.7,11.4,2c3.7,1.3,6.9,3.7,9.7,7c1.3-1.6,2.8-3,4.4-4.2
					c1.7-1.2,3.4-2.1,5.2-2.8c1.8-0.7,3.7-1.2,5.7-1.5c2-0.3,3.9-0.5,5.8-0.5c4.4,0,8.5,0.8,12.4,2.3c3.9,1.5,7.2,3.6,10.1,6.3
					s5.1,5.8,6.8,9.4c1.7,3.6,2.5,7.4,2.5,11.5V302.9z"/>
				<path fill="#FFFFFF" d="M408.5,284c0.8,0.2,1.7,0.4,2.5,0.5c0.8,0.1,1.7,0.1,2.5,0.1c2.1,0,4.1-0.3,6-0.8
					c1.9-0.5,3.7-1.3,5.4-2.3c1.7-1,3.2-2.2,4.5-3.6c1.3-1.4,2.4-3,3.2-4.7l15.5,14.5c-2,2.6-4.2,4.9-6.8,7
					c-2.6,2.1-5.3,3.8-8.3,5.3c-3,1.4-6.1,2.5-9.4,3.3c-3.3,0.7-6.7,1.1-10.1,1.1c-5.8,0-11.3-1-16.5-3c-5.1-2-9.6-4.8-13.5-8.4
					c-3.9-3.6-6.9-7.9-9.1-12.8c-2.2-5-3.3-10.4-3.3-16.4c0-6.1,1.1-11.7,3.3-16.7c2.2-5,5.3-9.3,9.1-12.9c3.9-3.5,8.4-6.3,13.5-8.3
					c5.1-2,10.6-2.9,16.5-2.9c3.5,0,6.9,0.4,10.2,1.2c3.3,0.8,6.5,1.9,9.4,3.3c3,1.4,5.8,3.2,8.3,5.3c2.6,2.1,4.9,4.4,6.8,7
					L408.5,284z M419.3,243.5c-1-0.3-2-0.6-2.9-0.6c-1-0.1-2-0.1-3-0.1c-2.9,0-5.6,0.5-8.2,1.5c-2.6,1-4.8,2.4-6.7,4.2
					c-1.9,1.8-3.4,4-4.5,6.6c-1.1,2.6-1.6,5.5-1.6,8.7c0,0.7,0,1.5,0.1,2.4c0.1,0.9,0.2,1.8,0.4,2.8c0.2,0.9,0.4,1.8,0.7,2.7
					c0.3,0.9,0.6,1.6,1,2.3L419.3,243.5z"/>
			</g>
		</g>
	</g>
	<g>
		
			<image overflow="visible" opacity="0.7" enable-background="new    " width="254" height="125" xlink:href="FCDCD8DF.png"  transform="matrix(1.6629 0 0 1.7103 52.2879 23)">
		</image>
		<g>
			<path fill="none" stroke="#FFFFFF" stroke-width="5" stroke-miterlimit="1" d="M64.3,210.5c0.2-97,85.8-175.5,191.4-175.3
				c105.6,0.2,190.9,79,190.7,176"/>
		</g>
	</g>
	<g>
		
			<image overflow="visible" opacity="0.7" enable-background="new    " width="172" height="79" xlink:href="FCDCD8DA.png"  transform="matrix(1.6629 0 0 1.7103 118.8025 76.0199)">
		</image>
		<g>
			<g>
				<path fill="#434343" d="M284.9,84.1l21.1,8.6c0,0-74.2,19.2-107.8,39.7C198.3,132.5,245.2,94.7,284.9,84.1z"/>
				<path fill="#CCCBCB" d="M380.5,92.6c0,0-74.7-16.9-216.3,62.9c0,0,88-42.4,152.2-47.4c0,0-82.1,20.2-111.6,37.8
					c0,0,69.3-25.5,110.2-26.9c0,0-30.3,7.2-39.4,13.3c0,0,42.7-8.9,59.7,8L380.5,92.6z"/>
				<g>
					<path fill="#BEDFF2" d="M126.8,148.2c0,0,4.7,24.6,66.3,8.9s80.5-23.9,110.6-22.1s37.9,20.5,37.9,20.5s-15.8-24.5-84-3.4
						C189.6,173.3,132.3,178,126.8,148.2z"/>
					<path fill="#BEDFF2" d="M335.1,160.9c0,0-14.8-19.7-58.4-7c-43.6,12.7-56.4,30.4-88.3,30.4c0,0,21.5,10.3,58.9-9.7
						S315,153.5,335.1,160.9z"/>
					<path fill="#BEDFF2" d="M222.4,167c0,0-40.7,14-75.2,5.1c0,0,19.3,12,45.9,6.2C219.7,172.5,222.4,167,222.4,167z"/>
				</g>
			</g>
		</g>
	</g>
</g>
</svg>
